<svg id="visual" viewBox="0 0 900 600" width="900" height="600" xmlns="http://www.w3.org/2000/svg" xmlns:xlink="http://www.w3.org/1999/xlink" version="1.1"><path d="M0 25L25 28C50 31 100 37 150 41C200 45 250 47 300 47C350 47 400 45 450 40C500 35 550 27 600 23C650 19 700 19 750 22C800 25 850 31 875 34L900 37L900 0L875 0C850 0 800 0 750 0C700 0 650 0 600 0C550 0 500 0 450 0C400 0 350 0 300 0C250 0 200 0 150 0C100 0 50 0 25 0L0 0Z" fill="#282828"></path><path d="M0 43L25 50C50 57 100 71 150 82C200 93 250 101 300 104C350 107 400 105 450 94C500 83 550 63 600 57C650 51 700 59 750 69C800 79 850 91 875 97L900 103L900 35L875 32C850 29 800 23 750 20C700 17 650 17 600 21C550 25 500 33 450 38C400 43 350 45 300 45C250 45 200 43 150 39C100 35 50 29 25 26L0 23Z" fill="#131313"></path><path d="M0 55L25 67C50 79 100 103 150 119C200 135 250 143 300 146C350 149 400 147 450 133C500 119 550 93 600 82C650 71 700 75 750 83C800 91 850 103 875 109L900 115L900 101L875 95C850 89 800 77 750 67C700 57 650 49 600 55C550 61 500 81 450 92C400 103 350 105 300 102C250 99 200 91 150 80C100 69 50 55 25 48L0 41Z" fill="#000000"></path><path d="M0 109L25 114C50 119 100 129 150 144C200 159 250 179 300 182C350 185 400 171 450 159C500 147 550 137 600 126C650 115 700 103 750 102C800 101 850 111 875 116L900 121L900 113L875 107C850 101 800 89 750 81C700 73 650 69 600 80C550 91 500 117 450 131C400 145 350 147 300 144C250 141 200 133 150 117C100 101 50 77 25 65L0 53Z" fill="#000000"></path><path d="M0 181L25 193C50 205 100 229 150 240C200 251 250 249 300 238C350 227 400 207 450 225C500 243 550 299 600 293C650 287 700 219 750 187C800 155 850 159 875 161L900 163L900 119L875 114C850 109 800 99 750 100C700 101 650 113 600 124C550 135 500 145 450 157C400 169 350 183 300 180C250 177 200 157 150 142C100 127 50 117 25 112L0 107Z" fill="#000000"></path><path d="M0 391L25 403C50 415 100 439 150 444C200 449 250 435 300 421C350 407 400 393 450 392C500 391 550 403 600 399C650 395 700 375 750 365C800 355 850 355 875 355L900 355L900 161L875 159C850 157 800 153 750 185C700 217 650 285 600 291C550 297 500 241 450 223C400 205 350 225 300 236C250 247 200 249 150 238C100 227 50 203 25 191L0 179Z" fill="#000000"></path><path d="M0 433L25 440C50 447 100 461 150 467C200 473 250 471 300 457C350 443 400 417 450 411C500 405 550 419 600 430C650 441 700 449 750 447C800 445 850 433 875 427L900 421L900 353L875 353C850 353 800 353 750 363C700 373 650 393 600 397C550 401 500 389 450 390C400 391 350 405 300 419C250 433 200 447 150 442C100 437 50 413 25 401L0 389Z" fill="#000000"></path><path d="M0 565L25 567C50 569 100 573 150 573C200 573 250 569 300 566C350 563 400 561 450 560C500 559 550 559 600 555C650 551 700 543 750 542C800 541 850 547 875 550L900 553L900 419L875 425C850 431 800 443 750 445C700 447 650 439 600 428C550 417 500 403 450 409C400 415 350 441 300 455C250 469 200 471 150 465C100 459 50 445 25 438L0 431Z" fill="#131313"></path><path d="M0 601L25 601C50 601 100 601 150 601C200 601 250 601 300 601C350 601 400 601 450 601C500 601 550 601 600 601C650 601 700 601 750 601C800 601 850 601 875 601L900 601L900 551L875 548C850 545 800 539 750 540C700 541 650 549 600 553C550 557 500 557 450 558C400 559 350 561 300 564C250 567 200 571 150 571C100 571 50 567 25 565L0 563Z" fill="#282828"></path></svg>